<?xml version="1.0" encoding="utf-8"?>
<svg xmlns="http://www.w3.org/2000/svg" viewBox="-0.494 -29.638 691.107 654.515" xmlns:bx="https://boxy-svg.com">
  <defs>
    <bx:export>
      <bx:file format="svg" href="#object-0"/>
      <bx:file format="svg" path="Untitled 2.svg"/>
      <bx:file format="svg" href="#object-1" path="Untitled 3.svg"/>
    </bx:export>
  </defs>
  <rect x="33.853" y="14.979" width="464.649" height="594.967" style="fill: rgb(255, 255, 255); paint-order: fill;"/>
  <rect x="492.061" y="129.552" width="123.427" height="450.869" style="fill: rgb(255, 255, 255); paint-order: fill; stroke-width: 1px;"/>
  <rect x="433.344" y="548.798" width="130.017" height="57.52" style="fill: rgb(255, 255, 255); paint-order: fill; stroke-width: 1px;" id="object-0"/>
  <path d="M 109.043 256.891 C 105.043 258.891 100.043 260.891 98.043 266.891 L 97.043 272.891 L 97.043 549.891 L 98.043 554.891 L 98.043 555.891 L 102.043 556.891 L 371.043 556.891 L 393.043 578.891 L 394.043 580.891 L 395.043 581.891 L 396.043 582.891 L 397.043 583.891 L 398.043 584.891 L 399.043 585.891 L 400.043 586.891 L 401.043 587.891 L 402.043 588.891 L 403.043 589.891 L 404.043 590.891 L 405.043 591.891 L 406.043 592.891 L 407.043 593.891 L 408.043 594.891 L 409.043 595.891 L 410.043 596.891 L 412.043 597.891 L 412.043 598.891 C 412.043 599.891 413.043 600.891 415.043 600.891 L 414.043 601.891 L 416.043 601.891 L 415.043 602.891 L 416.043 603.891 L 417.043 604.891 L 418.043 605.891 L 419.043 606.891 L 420.043 607.891 L 422.043 609.891 L 423.043 610.891 L 423.043 612.891 L 35.043 612.891 C 26.043 611.891 21.043 606.891 17.043 599.891 C 15.043 597.891 15.043 594.891 14.043 591.891 L 14.043 0.891 C 17.043 -7.109 22.043 -12.109 31.043 -15.109 L 35.043 -16.109 L 478.043 -16.109 L 479.043 -15.109 L 480.043 -15.109 L 481.043 -14.109 L 489.043 -8.109 L 488.043 -7.109 L 489.043 -7.109 L 489.043 -6.109 L 492.043 -4.109 L 492.043 -3.109 L 493.043 -3.109 L 493.043 -2.109 L 494.043 -2.109 L 494.043 -1.109 L 496.043 -0.109 L 497.043 0.891 L 498.043 1.891 L 499.043 2.891 L 500.043 3.891 L 501.043 4.891 L 502.043 5.891 L 503.043 6.891 L 504.043 7.891 L 504.043 8.891 L 506.043 9.891 L 507.043 10.891 L 508.043 11.891 L 509.043 12.891 L 510.043 13.891 L 511.043 14.891 L 512.043 15.891 L 513.043 16.891 L 514.043 17.891 L 515.043 18.891 L 516.043 19.891 L 517.043 20.891 L 518.043 21.891 L 519.043 22.891 L 520.043 23.891 L 521.043 24.891 L 522.043 25.891 L 523.043 26.891 L 524.043 27.891 L 525.043 28.891 L 526.043 29.891 L 527.043 30.891 L 528.043 31.891 L 529.043 32.891 L 530.043 33.891 L 531.043 34.891 L 532.043 35.891 L 533.043 36.891 L 534.043 37.891 L 535.043 38.891 L 536.043 39.891 L 537.043 40.891 L 538.043 41.891 L 539.043 42.891 L 540.043 43.891 L 541.043 44.891 L 542.043 45.891 L 543.043 46.891 L 544.043 47.891 L 545.043 48.891 L 546.043 49.891 L 547.043 50.891 L 548.043 51.891 L 549.043 52.891 L 550.043 53.891 L 551.043 54.891 L 552.043 55.891 L 553.043 56.891 L 554.043 57.891 L 555.043 58.891 L 556.043 59.891 L 557.043 60.891 L 558.043 61.891 L 559.043 62.891 L 560.043 63.891 L 561.043 64.891 L 562.043 65.891 L 563.043 66.891 L 564.043 67.891 L 566.043 69.891 L 567.043 70.891 L 568.043 71.891 L 569.043 72.891 L 570.043 73.891 L 571.043 74.891 L 572.043 75.891 L 573.043 76.891 L 574.043 77.891 L 575.043 78.891 L 576.043 79.891 L 577.043 80.891 L 578.043 81.891 L 579.043 82.891 L 580.043 83.891 L 581.043 84.891 L 582.043 85.891 L 583.043 86.891 L 584.043 87.891 L 585.043 88.891 L 586.043 89.891 L 587.043 90.891 L 588.043 91.891 L 589.043 92.891 L 590.043 93.891 L 591.043 94.891 L 592.043 95.891 L 593.043 96.891 L 594.043 97.891 L 595.043 98.891 L 596.043 99.891 L 597.043 100.891 L 599.043 102.891 L 600.043 103.891 L 601.043 104.891 L 602.043 105.891 L 603.043 106.891 L 604.043 107.891 L 605.043 108.891 L 606.043 109.891 L 607.043 110.891 L 608.043 111.891 L 609.043 112.891 L 610.043 113.891 L 611.043 114.891 L 612.043 115.891 L 613.043 116.891 L 614.043 118.891 L 617.043 122.891 L 619.043 126.891 L 618.043 129.891 L 617.043 132.891 L 617.043 261.891 L 618.043 265.891 L 618.043 266.891 L 603.043 281.891 L 602.043 282.891 L 601.043 283.891 L 600.043 284.891 L 599.043 285.891 L 598.043 286.891 L 597.043 287.891 L 596.043 288.891 L 595.043 289.891 L 594.043 290.891 L 593.043 291.891 L 592.043 292.891 L 591.043 293.891 L 590.043 294.891 L 589.043 295.891 L 588.043 296.891 L 587.043 297.891 L 586.043 298.891 L 585.043 299.891 L 584.043 300.891 L 583.043 301.891 L 582.043 302.891 L 581.043 303.891 L 580.043 304.891 L 579.043 305.891 L 578.043 306.891 L 577.043 307.891 L 576.043 308.891 L 575.043 309.891 L 574.043 310.891 L 573.043 311.891 L 572.043 312.891 L 571.043 313.891 L 570.043 314.891 L 569.043 315.891 L 568.043 316.891 L 567.043 317.891 L 566.043 318.891 L 565.043 319.891 L 564.043 320.891 L 563.043 321.891 L 562.043 322.891 L 561.043 323.891 L 560.043 324.891 L 559.043 325.891 L 558.043 326.891 L 557.043 327.891 L 556.043 328.891 L 555.043 329.891 L 554.043 330.891 L 544.043 340.891 L 536.043 348.891 L 535.043 342.891 L 535.043 273.891 L 534.043 267.891 C 532.043 262.891 529.043 258.891 523.043 256.891 L 517.043 255.891 L 114.043 255.891 L 109.043 256.891 M 168.043 15.891 L 168.043 18.891 C 168.675 72.224 169.34 125.558 170.041 178.891 L 430.043 178.891 L 431.043 173.891 L 431.043 18.891 C 431.043 16.891 430.043 15.891 428.043 13.891 L 175.043 13.891 L 168.043 15.891 Z" style="fill: rgb(30, 33, 192); stroke: rgb(255, 255, 255); stroke-width: 12px;"/>
  <path fill="#E42A24" d="M 591.043 446.891 L 590.043 447.891 L 589.043 448.891 L 588.043 449.891 L 587.043 450.891 L 586.043 451.891 L 585.043 452.891 L 584.043 453.891 L 583.043 454.891 L 582.043 455.891 L 577.043 460.891 L 576.043 461.891 L 575.043 462.891 L 547.043 490.891 L 546.043 491.891 L 545.043 492.891 L 544.043 493.891 L 543.043 494.891 L 542.043 495.891 L 541.043 496.891 L 540.043 497.891 L 539.043 498.891 L 537.043 500.891 L 536.043 501.891 L 535.043 502.891 L 528.043 509.891 L 526.043 511.891 L 525.043 512.891 L 524.043 513.891 L 523.043 514.891 L 521.043 516.891 L 519.043 518.891 L 493.043 544.891 L 492.043 545.891 L 455.043 582.891 L 453.043 583.891 L 437.043 566.891 L 436.043 565.891 L 435.043 564.891 L 429.043 558.891 L 428.043 557.891 L 418.043 547.891 L 417.043 546.891 L 416.043 545.891 L 415.043 544.891 L 414.043 543.891 C 398.603 528.664 383.269 513.33 368.043 497.891 L 361.043 489.891 L 360.043 488.891 L 359.043 487.891 L 348.043 476.891 L 347.043 475.891 L 338.043 466.891 L 337.043 465.891 L 324.043 452.891 L 323.043 451.891 L 322.043 450.891 L 321.043 449.891 L 301.043 428.891 L 345.043 383.891 L 347.043 381.891 L 350.043 379.891 L 354.043 379.891 L 355.043 380.891 L 356.043 381.891 L 357.043 382.891 L 360.043 385.891 L 361.043 386.891 L 362.043 387.891 L 363.043 388.891 L 364.043 389.891 L 365.043 390.891 L 368.043 393.891 L 369.043 394.891 L 370.043 395.891 L 371.043 396.891 L 372.043 397.891 L 373.043 398.891 L 374.043 399.891 L 377.043 402.891 L 378.043 403.891 C 379.87 405.389 381.544 407.064 383.043 408.891 L 384.043 409.891 L 385.043 410.891 L 386.043 411.891 L 387.043 412.891 L 388.043 413.891 L 389.043 414.891 L 392.043 417.891 L 394.043 419.891 L 395.043 420.891 L 396.043 421.891 L 397.043 422.891 L 403.043 428.891 L 404.043 429.891 L 405.043 430.891 C 406.857 432.402 408.531 434.076 410.043 435.891 L 411.043 436.891 L 412.043 437.891 C 423.134 448.8 434.134 459.8 445.043 470.891 L 457.043 484.891 C 505.948 436.129 554.947 387.461 604.041 338.889 L 605.043 337.891 L 606.043 335.891 L 611.043 331.891 L 612.043 330.891 L 613.043 329.891 L 614.043 328.891 L 615.043 327.891 L 616.043 326.891 L 621.043 321.891 L 622.043 320.891 L 623.043 319.891 L 624.043 318.891 L 627.043 315.891 L 628.043 314.891 L 629.043 313.891 L 630.043 312.891 L 634.043 312.891 L 638.043 316.891 L 639.043 317.891 L 640.043 318.891 L 641.043 319.891 L 643.043 321.891 L 644.043 322.891 L 645.043 323.891 L 646.043 324.891 C 655.53 334.069 664.864 343.404 674.043 352.891 L 675.043 353.891 L 676.043 354.891 L 677.043 355.891 L 679.043 358.891 L 678.043 358.891 L 677.043 360.891 L 676.043 361.891 L 674.043 363.891 L 673.043 364.891 L 671.043 366.891 L 670.043 367.891 L 666.043 371.891 L 665.043 372.891 L 664.043 373.891 L 661.043 376.891 C 658.494 379.673 655.825 382.342 653.043 384.891 L 652.043 385.891 L 651.043 386.891 L 650.043 387.891 L 645.043 392.891 L 644.043 393.891 L 643.043 394.891 L 639.043 398.891 L 638.043 399.891 L 637.043 400.891 L 636.043 401.891 C 625.721 412.897 615.049 423.569 604.043 433.891 L 603.043 434.891 L 602.043 435.891 L 594.043 443.891 L 593.043 444.891 L 592.043 445.891 L 591.043 446.891 Z" style="stroke: rgb(255, 255, 255); stroke-width: 12px;" id="object-1"/>
  <path d="M 484.043 610.891 C 488.272 606.454 492.606 602.12 497.043 597.891 L 498.043 596.891 L 499.043 595.891 L 500.043 594.891 L 501.043 593.891 L 502.043 592.891 L 503.043 591.891 L 504.043 590.891 L 505.043 589.891 L 506.043 588.891 L 507.043 587.891 L 508.043 586.891 L 509.043 585.891 L 510.043 584.891 L 511.043 583.891 L 512.043 582.891 L 513.043 581.891 L 514.043 580.891 L 515.043 579.891 L 516.043 578.891 L 517.043 577.891 L 518.043 576.891 L 519.043 575.891 L 520.043 574.891 L 521.043 573.891 L 522.043 572.891 L 523.043 571.891 L 524.043 570.891 L 525.043 569.891 L 526.043 568.891 L 527.043 567.891 L 528.043 566.891 L 529.043 565.891 L 530.043 564.891 L 531.043 563.891 L 532.043 562.891 L 533.043 561.891 L 534.043 560.891 L 535.043 559.891 L 536.043 558.891 L 537.043 557.891 L 538.043 556.891 L 539.043 555.891 L 540.043 554.891 L 541.043 553.891 L 542.043 552.891 L 543.043 551.891 L 544.043 550.891 L 545.043 549.891 L 546.043 548.891 L 547.043 547.891 L 548.043 546.891 L 549.043 545.891 L 550.043 544.891 L 551.043 543.891 L 552.043 542.891 L 553.043 541.891 L 554.043 540.891 L 555.043 539.891 L 556.043 538.891 L 557.043 537.891 L 558.043 536.891 L 559.043 535.891 L 560.043 534.891 L 561.043 533.891 L 562.043 532.891 L 563.043 531.891 L 564.043 530.891 L 565.043 529.891 L 566.043 528.891 L 567.043 527.891 L 568.043 526.891 L 569.043 525.891 L 570.043 524.891 L 571.043 523.891 L 572.043 522.891 L 573.043 521.891 L 574.043 520.891 L 575.043 519.891 L 576.043 518.891 L 577.043 517.891 L 578.043 516.891 L 579.043 515.891 L 580.043 514.891 L 581.043 513.891 L 582.043 512.891 L 583.043 511.891 L 584.043 510.891 L 585.043 509.891 L 586.043 508.891 L 587.043 507.891 L 588.043 506.891 L 589.043 505.891 L 590.043 504.891 L 591.043 503.891 L 592.043 502.891 L 593.043 501.891 L 594.043 500.891 L 595.043 499.891 L 596.043 498.891 L 604.043 490.891 L 605.043 489.891 L 606.043 488.891 L 607.043 487.891 L 608.043 486.891 L 609.043 485.891 L 610.043 484.891 L 611.043 483.891 L 612.043 482.891 L 613.043 481.891 L 614.043 480.891 L 615.043 479.891 L 618.043 479.891 L 618.043 481.891 L 617.043 484.891 L 617.043 588.891 L 618.043 592.891 L 618.043 593.891 C 617.043 600.891 612.043 605.891 606.043 609.891 L 598.043 612.891 L 489.043 612.891 L 484.043 610.891 Z" style="fill: rgb(30, 33, 192); stroke: rgb(255, 255, 255); stroke-width: 12px;"/>
  <path d="M 336.043 148.891 L 336.043 43.891 L 397.043 43.891 L 397.043 147.891 L 393.043 149.891 L 339.043 149.891 L 336.043 148.891 Z" style="stroke-width: 1px; fill: rgb(30, 33, 192);"/>
</svg>